<svg width="16" height="16" viewBox="0 0 16 16" fill="none" xmlns="http://www.w3.org/2000/svg">
<path d="M14.8 0H1.2C0.88174 0 0.576516 0.126428 0.351472 0.351472C0.126428 0.576516 0 0.88174 0 1.2V14.8C0 15.1183 0.126428 15.4235 0.351472 15.6485C0.576516 15.8736 0.88174 16 1.2 16H14.8C15.1183 16 15.4235 15.8736 15.6485 15.6485C15.8736 15.4235 16 15.1183 16 14.8V1.2C16 0.88174 15.8736 0.576516 15.6485 0.351472C15.4235 0.126428 15.1183 0 14.8 0ZM4.8 13.6H2.4V6.4H4.8V13.6ZM3.6 5C3.32495 4.99214 3.05831 4.9034 2.8334 4.74486C2.60849 4.58633 2.43529 4.36503 2.33544 4.10862C2.23558 3.85221 2.2135 3.57206 2.27195 3.30318C2.3304 3.03429 2.4668 2.78859 2.66409 2.59678C2.86138 2.40497 3.11083 2.27555 3.38125 2.22469C3.65168 2.17383 3.93109 2.2038 4.18459 2.31083C4.43808 2.41787 4.65441 2.59724 4.80655 2.82652C4.95869 3.0558 5.03989 3.32483 5.04 3.6C5.03368 3.97628 4.87867 4.33476 4.60884 4.59709C4.33901 4.85943 3.97631 5.00428 3.6 5ZM13.6 13.6H11.2V9.808C11.2 8.672 10.72 8.264 10.096 8.264C9.91305 8.27618 9.73431 8.32439 9.57004 8.40585C9.40577 8.48731 9.25921 8.60042 9.13879 8.73869C9.01836 8.87695 8.92644 9.03765 8.8683 9.21154C8.81016 9.38544 8.78695 9.56911 8.8 9.752C8.79603 9.78923 8.79603 9.82677 8.8 9.864V13.6H6.4V6.4H8.72V7.44C8.95402 7.084 9.27554 6.79406 9.65375 6.59795C10.032 6.40184 10.4542 6.30613 10.88 6.32C12.12 6.32 13.568 7.008 13.568 9.248L13.6 13.6Z" fill="#94A3B8"/>
</svg>
