<svg width="21" height="16" viewBox="0 0 21 16" fill="none" xmlns="http://www.w3.org/2000/svg">
<path d="M19.7679 0H0.732143C0.327176 0 0 0.325 0 0.727273V15.2727C0 15.675 0.327176 16 0.732143 16H19.7679C20.1728 16 20.5 15.675 20.5 15.2727V0.727273C20.5 0.325 20.1728 0 19.7679 0ZM17.9192 2.475L10.7007 8.05455C10.5223 8.19318 10.2729 8.19318 10.0944 8.05455L2.87366 2.475C2.84644 2.45413 2.82648 2.42533 2.81656 2.39262C2.80665 2.35992 2.80729 2.32495 2.81839 2.29263C2.82949 2.2603 2.8505 2.23224 2.87846 2.21237C2.90642 2.19249 2.93995 2.18181 2.97433 2.18182H17.8185C17.8529 2.18181 17.8864 2.19249 17.9144 2.21237C17.9424 2.23224 17.9634 2.2603 17.9745 2.29263C17.9856 2.32495 17.9862 2.35992 17.9763 2.39262C17.9664 2.42533 17.9464 2.45413 17.9192 2.475Z" fill="white"/>
</svg>
