<svg width="12" height="16" viewBox="0 0 12 16" fill="none" xmlns="http://www.w3.org/2000/svg">
<path d="M11.3464 4.0125C11.4445 4.11964 11.5 4.26429 11.5 4.41607V15.4286C11.5 15.7446 11.2664 16 10.9773 16H0.522727C0.233594 16 0 15.7446 0 15.4286V0.571429C0 0.255357 0.233594 0 0.522727 0H7.4603C7.59915 0 7.7331 0.0607143 7.83111 0.167857L11.3464 4.0125ZM10.2945 4.67857L7.22017 1.31786V4.67857H10.2945ZM7.73016 10.2368C7.48219 10.2279 7.21854 10.2487 6.91911 10.2896C6.52217 10.022 6.25492 9.65429 6.06511 9.11411L6.08258 9.03589L6.10284 8.94339C6.17308 8.61964 6.21082 8.38339 6.22209 8.14518C6.23058 7.96536 6.22143 7.79946 6.19219 7.64571C6.13829 7.31375 5.92348 7.11964 5.6528 7.10768C5.40043 7.09643 5.16847 7.25054 5.10917 7.48929C5.01263 7.87536 5.06915 8.38339 5.27383 9.24982C5.01312 9.92929 4.66861 10.7259 4.43746 11.1702C4.12889 11.3441 3.8886 11.5023 3.6867 11.6777C3.42043 11.9093 3.25414 12.1473 3.2084 12.3973C3.18619 12.5132 3.21967 12.6646 3.29596 12.7888C3.38254 12.9295 3.51289 13.0209 3.66922 13.0341C4.06371 13.0675 4.54854 12.6229 5.08385 11.6188C5.13759 11.5991 5.19444 11.5784 5.26386 11.5527L5.45825 11.4809C5.58126 11.4355 5.67045 11.403 5.75866 11.3718C6.1409 11.2357 6.43004 11.1498 6.69303 11.1009C7.15009 11.3684 7.67837 11.5438 8.03415 11.5438C8.32786 11.5438 8.52633 11.3773 8.59805 11.1154C8.66094 10.8854 8.61111 10.6186 8.47586 10.4711C8.33603 10.3209 8.07891 10.2491 7.73016 10.2368ZM3.67918 12.53V12.5236L3.68131 12.5175C3.70521 12.45 3.73589 12.3855 3.77278 12.3254C3.8427 12.2079 3.93891 12.0843 4.05816 11.9527C4.12219 11.8821 4.18884 11.8134 4.26709 11.7362C4.28457 11.7191 4.3963 11.6104 4.41721 11.5889L4.59967 11.4032L4.46703 11.6341C4.26578 11.9848 4.08381 12.2373 3.92797 12.402C3.87063 12.4627 3.82016 12.5073 3.77932 12.5361C3.76584 12.5459 3.75157 12.5544 3.73668 12.5614C3.72999 12.5645 3.7241 12.5663 3.71822 12.5668C3.71202 12.5676 3.70571 12.5667 3.69993 12.5641C3.69378 12.5613 3.68853 12.5566 3.68484 12.5505C3.68115 12.5444 3.67918 12.5373 3.67918 12.53ZM5.73644 8.63214L5.69952 8.70357L5.67665 8.62536C5.62602 8.44982 5.58877 8.18536 5.57848 7.94679C5.56672 7.67536 5.58648 7.5125 5.66489 7.5125C5.77499 7.5125 5.82547 7.70536 5.82939 7.99554C5.83298 8.25054 5.79639 8.51589 5.73644 8.63214ZM5.64153 9.67607L5.66653 9.60375L5.70067 9.67161C5.89163 10.0509 6.13943 10.3673 6.4119 10.5879L6.47071 10.6354L6.399 10.6514C6.13224 10.7118 5.88379 10.8025 5.54401 10.9523C5.57946 10.9366 5.19084 11.1105 5.09251 11.1518L5.00675 11.1877L5.05249 11.1005C5.25423 10.7166 5.44077 10.2555 5.64153 9.67607ZM8.21629 11.0379C8.0879 11.0932 7.81151 11.0438 7.32488 10.8166L7.20138 10.7591L7.33533 10.7484C7.71594 10.7175 7.98548 10.7404 8.14262 10.8032C8.20959 10.83 8.25419 10.8638 8.27396 10.9023C8.28436 10.9206 8.28785 10.9425 8.28371 10.9636C8.27956 10.9846 8.2681 11.003 8.25174 11.015C8.24135 11.025 8.22932 11.0328 8.21629 11.0379Z" fill="#94A3B8"/>
</svg>
