<svg width="51" height="44" viewBox="0 0 51 44" fill="none" xmlns="http://www.w3.org/2000/svg">
<path d="M35.0776 30.3661C36.9458 30.1911 38.3631 28.7341 38.2986 26.9855C38.2344 25.2371 36.6237 23.8382 34.691 23.8382H34.5623C32.565 23.8965 31.0189 25.4118 31.0834 27.2186C31.1479 28.0929 31.5343 28.8506 32.1141 29.3751C29.9238 33.2803 26.5738 36.1361 21.5489 38.5258C18.1345 40.1577 14.5914 40.7406 11.0483 40.3327C8.1492 39.9829 5.89442 38.8174 4.47693 36.8938C2.41555 34.0379 2.22235 30.9488 3.96178 27.8598C5.18587 25.645 7.11832 24.013 8.34241 23.197C8.08473 22.4393 7.69813 21.1571 7.50492 20.2247C-1.83634 26.3445 -0.869918 34.6208 1.96467 38.5258C4.09052 41.4401 8.40687 43.2469 13.1741 43.2469C14.4625 43.2469 15.7508 43.1302 17.0394 42.839C25.2855 41.3818 31.5345 36.9521 35.0776 30.3661ZM46.416 23.1389C41.5198 17.9515 34.3046 15.0956 26.0585 15.0956H25.0278C24.448 14.0465 23.2239 13.347 21.8711 13.347H21.7421C19.7452 13.4054 18.1992 14.9207 18.2635 16.7276C18.3279 18.4761 19.9384 19.8749 21.8711 19.8749H21.9998C23.4171 19.8166 24.6412 19.0006 25.1566 17.8932H26.3162C31.2123 17.8932 35.8506 19.1754 40.0383 21.6817C43.2593 23.6051 45.5785 26.1114 46.8669 29.142C47.962 31.59 47.8976 33.9796 46.7379 36.0197C44.9342 39.1086 41.9064 40.7989 37.9122 40.7989C35.3353 40.7989 32.8873 40.0994 31.5988 39.5749C30.8902 40.1577 29.6016 41.0902 28.6997 41.6732C31.47 42.8388 34.3046 43.48 37.0103 43.48C43.1948 43.48 47.7688 40.3909 49.5083 37.3019C51.3764 33.9213 51.2475 28.0929 46.416 23.1389ZM13.6894 31.3567C13.7539 33.1053 15.3644 34.504 17.2971 34.504H17.426C19.4231 34.4458 20.9691 32.9303 20.9047 31.1236C20.8404 29.375 19.2297 27.9763 17.2971 27.9763H17.1683C17.0394 27.9763 16.846 27.9763 16.7174 28.0344C14.0761 24.0711 12.9809 19.7583 13.3675 15.0955C13.625 11.5984 14.9135 8.56758 17.1683 6.0613C19.0365 3.90478 22.6441 2.85568 25.0923 2.79754C31.9209 2.68089 34.8198 10.3743 35.0132 13.4635C35.8506 13.6383 37.2679 14.0464 38.2344 14.3378C37.4611 4.89591 31.0189 0 24.8346 0C19.0365 0 13.6895 3.78849 11.5634 9.38375C8.60008 16.8441 10.5327 24.013 14.1403 29.6666C13.8184 30.0745 13.625 30.7155 13.6894 31.3567Z" fill="#764ABC"/>
</svg>
